<?xml version="1.0" encoding="utf-8"?>
<!-- Generator: Adobe Illustrator 16.0.0, SVG Export Plug-In . SVG Version: 6.00 Build 0)  -->
<!DOCTYPE svg PUBLIC "-//W3C//DTD SVG 1.1//EN" "http://www.w3.org/Graphics/SVG/1.1/DTD/svg11.dtd">
<svg version="1.1" xmlns="http://www.w3.org/2000/svg" xmlns:xlink="http://www.w3.org/1999/xlink" x="0px" y="0px" width="128px"
	 height="36px" viewBox="0 0 128 36" enable-background="new 0 0 128 36" xml:space="preserve">
<g id="Layer_1" display="none">
</g>
<g id="bg">
</g>
<g id="overaly" display="none">
</g>
<g id="Layer_3">
</g>
<g id="Layer_2">
	<g>
		<g>
			<path fill="#FFFFFF" d="M4.153,14.936C4.153,5.125,11.166,3,16.479,3c3.666,0,10.873,2.249,10.873,11.724
				c0,6.339-5.844,11.228-11.298,11.228C9.395,25.951,4.153,21.771,4.153,14.936z M8.262,14.688c0,3.698,1.068,10.56,7.563,10.56
				c7.42,0,7.561-4.902,7.561-9.925c0-6.514-1.438-11.721-7.189-11.721C11.981,3.603,8.262,5.515,8.262,14.688z M27.602,27.416
				c0-0.063-0.001-0.125-0.001-0.189l0.991-0.213c0.005,0.139,0.008,0.277,0.008,0.416c0,2.775-1.025,5.57-3.656,5.57
				c-5.53,0-7.474-5.455-11.086-5.455c-1.665,0-2.443,2.798-2.479,3.046c-0.39,0-0.638-0.142-0.638-0.142
				c0-0.743,0.567-2.479,1.488-3.4c0.523-0.488,1.837-0.85,2.893-0.85c0.016,0,0.031,0,0.047,0c3.436,0.035,6.521,4.144,10.2,4.144
				C27.115,30.343,27.602,29.155,27.602,27.416z"/>
			<path fill="#FFFFFF" d="M35.571,11.501L35.5,20.957c0.035,1.665,0.354,3.967,1.878,3.967c2.833,0,4.746-4.498,4.746-4.498v-7.579
				c-0.52-0.331-1.134-0.426-2.055-0.426v-0.566c1.488,0,4.003-0.142,5.101-0.354c0,0-0.233,4.189-0.283,6.871
				c-0.01,0.531-0.015,1.13-0.015,1.738c0,2.159,0.05,4.46,0.05,4.46c0.319,0.271,1.122,0.365,2.09,0.39v0.425
				c-1.381,0.07-3.472,0.354-4.711,0.673l-0.248-3.79c0,0-2.337,3.648-5.1,3.648c-3.365,0-4.31-1.948-4.321-4.888l-0.035-8.323
				c-0.484-0.236-1.217-0.284-2.02-0.284v-0.566C31.899,11.854,34.012,11.784,35.571,11.501z"/>
			<path fill="#FFFFFF" d="M63.765,18.159c0,4.108-2.124,7.97-7.084,7.97c-4.816,0-7.26-2.656-7.26-7.935
				c0-4.285,3.612-7.083,6.977-7.083C60.578,11.111,63.765,14.547,63.765,18.159z M60.719,18.549c0-3.364-1.452-6.765-4.002-6.765
				c-3.436,0-4.108,4.108-4.108,7.013c0,3.719,1.487,6.445,4.179,6.445C59.267,25.242,60.719,22.905,60.719,18.549z"/>
			<path fill="#FFFFFF" d="M72.019,12.173v9.422c0,1.915,0.603,3.259,1.735,3.259c1.275,0,1.983-1.169,2.621-2.904l0.743,0.39
				c-0.637,1.7-1.346,3.436-3.932,3.436c-1.31,0-2.461-0.407-3.134-1.151s-0.868-1.895-0.868-4.268v-8.183h-2.904v-0.46
				c1.009,0,3.063-0.708,3.666-1.487c0.469-0.607,1.328-2.231,1.328-3.825h0.814c-0.127,0.948-0.145,2.114-0.145,3.387
				c0,0.509,0.003,1.035,0.003,1.571l3.932-0.07l-0.213,0.885H72.019z"/>
			<path fill="#FFFFFF" d="M83.035,18.797c0,2.904,1.063,6.481,3.577,6.481c3.116,0,4.428-2.55,4.817-3.612l0.956,0.673
				c-0.46,1.134-2.16,3.79-5.915,3.79c-3.684,0-6.836-2.303-6.836-7.19c0-5.773,4.144-7.474,7.084-7.474
				c2.055,0,4.888,0.921,5.561,4.25c0.075,0.352,0.15,0.755,0.15,1.374c0,0.257-0.013,0.551-0.044,0.894l-9.351,0.035V18.797z
				 M89.303,17.451c0.026-0.363,0.043-0.735,0.043-1.101c0-0.631-0.049-1.239-0.184-1.733c-0.354-1.381-1.488-2.515-3.188-2.515
				c-1.736,0-2.728,2.161-2.905,5.384L89.303,17.451z"/>
			<path fill="#FFFFFF" d="M107.899,14.157c0,1.098-0.885,2.302-1.912,2.302c-0.708,0-1.735-0.673-1.771-1.629
				c0-0.496,0.249-0.921,0.992-1.452c-0.248-0.426-0.318-0.921-1.169-0.921c-2.16,0-3.506,4.215-3.506,4.215l0.07,7.402
				c0.035,0.708,1.948,0.85,2.408,0.886v0.566c-0.896-0.075-2.326-0.12-3.777-0.12c-1.3,0-2.618,0.036-3.59,0.12V24.96
				c0.567-0.036,2.196-0.496,2.196-0.886v-11.44c-0.566-0.354-1.274-0.318-2.196-0.354l-0.07-0.567c1.842,0,3.116-0.283,4.675-0.673
				l0.39,4.145c0.531-1.382,1.948-4.038,4.534-4.038C106.908,11.146,107.899,12.244,107.899,14.157z"/>
			<path fill="#FFFFFF" d="M122.847,14.157c0,1.098-0.886,2.302-1.912,2.302c-0.709,0-1.736-0.673-1.771-1.629
				c0-0.496,0.248-0.921,0.992-1.452c-0.249-0.426-0.319-0.921-1.169-0.921c-2.161,0-3.507,4.215-3.507,4.215l0.07,7.402
				c0.036,0.708,1.948,0.85,2.408,0.886v0.566c-0.896-0.075-2.325-0.12-3.776-0.12c-1.301,0-2.619,0.036-3.59,0.12V24.96
				c0.566-0.036,2.195-0.496,2.195-0.886v-11.44c-0.566-0.354-1.274-0.318-2.195-0.354l-0.071-0.567
				c1.842,0,3.117-0.283,4.676-0.673l0.39,4.145c0.531-1.382,1.947-4.038,4.533-4.038C121.855,11.146,122.847,12.244,122.847,14.157
				z"/>
		</g>
	</g>
</g>
</svg>
